<svg fill="none" version="1.1" viewBox="0 0 14 14" xmlns="http://www.w3.org/2000/svg">
 <g transform="matrix(.77778 0 0 .77778 -2.3333 -2.3333)">
  <g fill="#478cbf">
   <path d="m6.75 3h-1c-1.5188 0-2.75 1.2312-2.75 2.75v12.5c0 1.5188 1.2312 2.75 2.75 2.75h0.25v-6c0-1.2426 1.0074-2.25 2.25-2.25h7.5c1.2426 0 2.25 1.0074 2.25 2.25v6h0.25c1.5188 0 2.75-1.2312 2.75-2.75v-9.9645c0-0.86195-0.3424-1.6886-0.9519-2.2981l-2.0355-2.0355c-0.6012-0.60111-1.4135-0.94243-2.2626-0.95171v4.4998c0 1.2426-1.0074 2.25-2.25 2.25h-4.5c-1.2426 0-2.25-1.0074-2.25-2.25v-4.5z"/>
   <path d="m14.25 3v4.5c0 0.41421-0.3358 0.75-0.75 0.75h-4.5c-0.41421 0-0.75-0.33579-0.75-0.75v-4.5z"/>
   <path d="m16.5 21v-6c0-0.4142-0.3358-0.75-0.75-0.75h-7.5c-0.41421 0-0.75 0.3358-0.75 0.75v6z"/>
  </g>
 </g>
</svg>
